<svg xmlns="http://www.w3.org/2000/svg" version="1.1" xmlns:xlink="http://www.w3.org/1999/xlink" width="100" height="100"><svg xmlns="http://www.w3.org/2000/svg" version="1.1" xmlns:xlink="http://www.w3.org/1999/xlink" width="100" height="100"><svg version="1.1" xmlns="http://www.w3.org/2000/svg" xmlns:xlink="http://www.w3.org/1999/xlink" width="100" height="100" viewBox="0,0,256,256"><g fill="#127ADB" fill-rule="nonzero" stroke="none" stroke-width="1" stroke-linecap="butt" stroke-linejoin="miter" stroke-miterlimit="10" stroke-dasharray="" stroke-dashoffset="0" font-family="none" font-weight="none" font-size="none" text-anchor="none" style="mix-blend-mode: normal"><g transform="scale(2.56,2.56)" fill="#127ADB"><path d="M44.01953,9c-0.02801,-0.00053 -0.05603,0.00013 -0.08398,0.00195c0,0 -4.62388,0.27297 -8.53516,3.19727c-0.45132,0.33743 -0.95111,0.8279 -1.48047,1.39258c-3.28714,2.15254 -7.73478,9.26718 -10.46484,14.00195c-1.83131,2.67954 -3.29102,4.85742 -3.29102,4.85742c-0.04766,0.07225 -0.08574,0.15037 -0.11328,0.23242l-0.85742,2.57422l-6.58789,2.82227c-0.21489,0.09275 -0.39045,0.25794 -0.49609,0.4668c-3.78134,7.43489 -5.82495,12.76555 -6.10547,16.375c-0.00535,0.06307 -0.00469,0.12651 0.00195,0.18945c0.51885,4.66969 2.09761,7.83029 3.71875,11.19727c1.62114,3.36697 3.30906,6.97544 4.28906,12.85547c0.03626,0.2198 0.14486,0.4212 0.30859,0.57227c4.4353,4.08194 8.50219,6.70238 12.3125,8.19531c0.06371,0.02493 0.12981,0.04325 0.19727,0.05469c10.34981,1.7553 17.23369,2.01327 29.29297,0.50586c7.13097,-0.89149 13.72768,0.20866 20.97266,-0.49609c0.06426,-0.00687 0.12771,-0.01995 0.18945,-0.03906l10,-3c0.31902,-0.09571 0.56945,-0.34395 0.66797,-0.66211l4,-13c0.04777,-0.15493 0.05715,-0.31915 0.02734,-0.47852c-0.88034,-4.73528 -1.88114,-11.24324 -3.04102,-17.08398c-0.57994,-2.92037 -1.19867,-5.67312 -1.87109,-7.97656c-0.67243,-2.30344 -1.35751,-4.13944 -2.26953,-5.35547c-0.00065,-0.00065 -0.0013,-0.0013 -0.00195,-0.00195c0.07654,0.10184 -0.19899,-0.38821 -0.38867,-0.80469c-0.18968,-0.41648 -0.31209,-0.7727 -0.5918,-1.16992c-0.07173,-0.10172 -0.16181,-0.18915 -0.26562,-0.25781c-8.22291,-5.44785 -11.85095,-9.06493 -15.16602,-12.06641c-3.27003,-2.9607 -6.33295,-5.32276 -12.80664,-7.92383c-6.34001,-6.30577 -9.23138,-8.45311 -11.26758,-9.125c-0.09458,-0.03143 -0.19333,-0.04855 -0.29297,-0.05078zM43.83203,11.04102c1.35505,0.48965 4.20586,2.43236 10.46289,8.66797c0.09589,0.09554 0.21018,0.17063 0.33594,0.2207c6.47758,2.57121 9.15388,4.70057 12.41406,7.65234c1.15629,1.04691 2.48107,2.25292 3.96289,3.55273c0.01517,0.1067 0.04749,0.21025 0.0957,0.30664c0.76794,1.55808 1.13338,5.85469 1.13672,9.56055c0.0031,3.40896 -0.18617,5.91102 -0.21875,6.36914l-7.0957,3.54688c-7.28447,-2.32017 -13.83358,-6.42696 -14.16602,-6.63672l-6.86523,-13.72852c-0.06841,-0.14038 -0.16875,-0.26279 -0.29297,-0.35742c-0.81126,-3.7021 -3.2964,-14.01117 -6.60352,-16.6582c3.0931,-2.13015 6.49074,-2.4666 6.83398,-2.49609zM39.37695,35.36133l7.99609,10.96289l-0.37305,9.67578l-10.23047,8.09961l-6.74609,-8.76953c1.794,-2.209 3.34756,-5.06108 3.97656,-6.33008c0.97,-1.958 -1,-9 -1,-9zM76.69922,35.77148c1.59824,1.19871 3.41191,2.49027 5.5293,3.90039c0.01912,0.05021 0.19194,0.37809 0.36133,0.75c0.19107,0.41952 0.29579,0.75985 0.61133,1.17969c0.58781,0.78451 1.30494,2.50782 1.94922,4.71484c0.6446,2.20813 1.25639,4.91776 1.83008,7.80664c1.13081,5.69435 2.11131,12.04498 2.99219,16.81445l-3.77148,12.25781l-9.36133,2.80859c-0.09415,0.00902 -0.1872,0.01116 -0.28125,0.01953c0.12147,-3.18971 0.32503,-12.08716 -1.05859,-16.52344c-1.687,-5.409 -8,-13 -8,-13l2.17773,-5.08398l6.32227,-2.41602zM50,47.45508l13.66211,5.22461c-0.44917,1.16757 -1.44561,3.73431 -2.81641,6.94727c-0.86738,2.03303 -1.79822,4.10381 -2.625,5.7207c-0.41339,0.80845 -0.80316,1.50443 -1.13086,2.00977c-0.3277,0.50533 -0.66287,0.82116 -0.62109,0.79492c-0.38707,0.24313 -0.82429,0.61222 -1.44141,1.14844c-0.61712,0.53622 -1.37352,1.22173 -2.22266,2.00586c-1.69826,1.56826 -3.76358,3.5307 -5.76367,5.45313c-3.34117,3.21143 -5.51593,5.35345 -6.4668,6.28711c-2.08652,-1.47577 -4.55906,-2.83993 -7.57422,-4.04687c0,0 -3.56586,0.61736 -7.00586,0.44336c-0.546,0.08 -0.99714,-0.45486 -0.99414,-1.00586c0.003,-0.552 0.45386,-0.99814 1.00586,-0.99414c3.04,0.019 6.55539,-0.19447 9.27539,-1.10547c1.41786,-1.97481 3.06076,-4.97292 3.61719,-8.67969l11.10156,-10.6582zM10.87891,48.00586c0.12899,-0.01606 0.26373,-0.00625 0.39649,0.03125c0.53,0.151 0.8385,0.70533 0.6875,1.23633l-1.9043,6.66016l5.36328,12.67578c0.02,0.048 0.03683,0.09648 0.04883,0.14648l1.5,6c0.134,0.536 -0.19352,1.07889 -0.72852,1.21289c-0.35264,0.08816 -0.69531,-0.03651 -0.93555,-0.27539c-0.3577,-1.50273 -0.76111,-2.8633 -1.19141,-4.10937l-0.56641,-2.26758l-5.19141,-12.26953c-0.10014,-0.49051 -0.18685,-1.0007 -0.25977,-1.53125l1.93945,-6.79102c0.114,-0.3975 0.45484,-0.67056 0.8418,-0.71875zM64.66797,58.86914c0.43892,0.68891 0.8656,1.34786 1.39844,2.24219c1.54081,2.58615 3.26513,5.82024 3.97656,8.17773c0.68784,2.27933 0.97298,6.79201 1.03125,10.62695c0.04795,3.15563 -0.02246,5.43613 -0.05273,6.30469c-4.89468,-0.01977 -9.80373,-0.38083 -15.14648,0.28711c-2.95807,0.36976 -5.58246,0.6318 -8.01562,0.79102l-0.85937,-4.29883l12.5,-12.5z" fill="#127ADB"></path></g></g></svg></svg><style>@media (prefers-color-scheme: light) { :root { filter: none; } }
@media (prefers-color-scheme: dark) { :root { filter: none; } }
</style></svg>