<svg xmlns="http://www.w3.org/2000/svg" viewBox="0 12.899999618530273 371.5 45.80000686645508" data-asc="0.968" width="371.5" height="45.80000686645508"><defs/><g fill="#000000"><g transform="translate(0, 0)"><path d="M24.00 58.70Q18.60 58.70 14.20 56.98Q9.80 55.25 6.63 52.15Q3.45 49.05 1.73 44.85Q0 40.65 0 35.70Q0 30.80 1.73 26.65Q3.45 22.50 6.65 19.40Q9.85 16.30 14.30 14.60Q18.75 12.90 24.20 12.90Q29.45 12.90 33.80 14.52Q38.15 16.15 41.30 19.10Q44.45 22.05 46.15 26.02Q47.85 30.00 47.85 34.70Q47.85 39.15 46.58 42.30Q45.30 45.45 43 47.10Q40.70 48.75 37.60 48.75Q34.20 48.75 32.20 46.75Q30.20 44.75 30.20 40.90L30.20 38.60L30.35 35.90L29.90 28.65L29.90 23.85L36.70 23.85L36.70 40.05Q36.70 41.85 37.40 42.55Q38.10 43.25 39.10 43.25Q40.25 43.25 41.08 42.35Q41.90 41.45 42.35 39.57Q42.80 37.70 42.80 34.80Q42.80 31.00 41.48 27.85Q40.15 24.70 37.67 22.40Q35.20 20.10 31.78 18.87Q28.35 17.65 24.20 17.65Q20.05 17.65 16.60 19.00Q13.15 20.35 10.70 22.77Q8.25 25.20 6.92 28.50Q5.60 31.80 5.60 35.70Q5.60 39.70 6.90 43.02Q8.20 46.35 10.63 48.77Q13.05 51.20 16.45 52.55Q19.85 53.90 24.00 53.90Q26.40 53.90 28.95 53.38Q31.50 52.85 33.85 51.70L35.45 56.30Q33.15 57.45 30.07 58.08Q27.00 58.70 24.00 58.70M22.20 48.75Q19.00 48.75 16.38 47.17Q13.75 45.60 12.20 42.72Q10.65 39.85 10.65 36.10Q10.65 32.35 12.18 29.50Q13.70 26.65 16.33 25.07Q18.95 23.50 22.20 23.50Q25.50 23.50 27.85 25.00Q30.20 26.50 31.45 29.30Q32.70 32.10 32.70 36.10Q32.70 40.05 31.50 42.90Q30.30 45.75 27.98 47.25Q25.65 48.75 22.20 48.75M23.75 43Q25.55 43 26.98 42.17Q28.40 41.35 29.20 39.80Q30.00 38.25 30.00 36.10Q30.00 33.90 29.20 32.40Q28.40 30.90 26.98 30.10Q25.55 29.30 23.75 29.30Q21.95 29.30 20.55 30.10Q19.15 30.90 18.35 32.42Q17.55 33.95 17.55 36.10Q17.55 38.25 18.35 39.77Q19.15 41.30 20.55 42.15Q21.95 43 23.75 43ZM53.95 48.40L53.95 13.40L69.85 13.40Q75.55 13.40 79.90 15.57Q84.25 17.75 86.70 21.65Q89.15 25.55 89.15 30.90Q89.15 36.20 86.70 40.13Q84.25 44.05 79.90 46.23Q75.55 48.40 69.85 48.40L53.95 48.40M62.05 41.75L69.45 41.75Q72.95 41.75 75.53 40.42Q78.10 39.10 79.53 36.65Q80.95 34.20 80.95 30.90Q80.95 27.55 79.53 25.12Q78.10 22.70 75.53 21.37Q72.95 20.05 69.45 20.05L62.05 20.05L62.05 41.75ZM111.20 48.40L111.20 43.15L110.70 42L110.70 32.60Q110.70 30.10 109.17 28.70Q107.65 27.30 104.50 27.30Q102.35 27.30 100.27 27.97Q98.20 28.65 96.75 29.80L93.95 24.35Q96.15 22.80 99.25 21.95Q102.35 21.10 105.55 21.10Q111.70 21.10 115.10 24.00Q118.50 26.90 118.50 33.05L118.50 48.40L111.20 48.40M103 48.80Q99.85 48.80 97.60 47.73Q95.35 46.65 94.15 44.80Q92.95 42.95 92.95 40.65Q92.95 38.25 94.13 36.45Q95.30 34.65 97.85 33.63Q100.40 32.60 104.50 32.60L111.65 32.60L111.65 37.15L105.35 37.15Q102.60 37.15 101.57 38.05Q100.55 38.95 100.55 40.30Q100.55 41.80 101.72 42.67Q102.90 43.55 104.95 43.55Q106.90 43.55 108.45 42.63Q110 41.70 110.70 39.90L111.90 43.50Q111.05 46.10 108.80 47.45Q106.55 48.80 103 48.80ZM125.55 48.40L125.55 21.50L133 21.50L133 29.10L131.95 26.90Q133.15 24.05 135.80 22.57Q138.45 21.10 142.25 21.10L142.25 28.30Q141.75 28.25 141.35 28.22Q140.95 28.20 140.50 28.20Q137.30 28.20 135.32 30.02Q133.35 31.85 133.35 35.70L133.35 48.40L125.55 48.40ZM158.10 48.80Q153.35 48.80 150.70 46.38Q148.05 43.95 148.05 39.15L148.05 15.55L155.85 15.55L155.85 39.05Q155.85 40.75 156.75 41.67Q157.65 42.60 159.20 42.60Q161.05 42.60 162.35 41.60L164.45 47.10Q163.25 47.95 161.57 48.38Q159.90 48.80 158.10 48.80M143.90 28.10L143.90 22.10L162.55 22.10L162.55 28.10L143.90 28.10ZM179.90 48.40L164.80 13.40L173.55 13.40L186.75 44.40L181.60 44.40L195 13.40L203.05 13.40L187.90 48.40L179.90 48.40ZM206.70 48.40L206.70 13.40L221.85 13.40Q226.55 13.40 229.95 14.92Q233.35 16.45 235.20 19.30Q237.05 22.15 237.05 26.10Q237.05 30.00 235.20 32.85Q233.35 35.70 229.95 37.22Q226.55 38.75 221.85 38.75L211.20 38.75L214.80 35.10L214.80 48.40L206.70 48.40M214.80 36L211.20 32.15L221.40 32.15Q225.15 32.15 227 30.55Q228.85 28.95 228.85 26.10Q228.85 23.20 227 21.60Q225.15 20.00 221.40 20.00L211.20 20.00L214.80 16.15L214.80 36ZM243.30 48.40L243.30 13.40L250 13.40L270.65 38.60L267.40 38.60L267.40 13.40L275.40 13.40L275.40 48.40L268.75 48.40L248.05 23.20L251.30 23.20L251.30 48.40L243.30 48.40ZM283.70 48.40L283.70 13.40L300.80 13.40Q307.40 13.40 310.73 15.90Q314.05 18.40 314.05 22.50Q314.05 25.25 312.70 27.27Q311.35 29.30 309 30.40Q306.65 31.50 303.60 31.50L304.55 29.45Q307.85 29.45 310.40 30.52Q312.95 31.60 314.38 33.70Q315.80 35.80 315.80 38.85Q315.80 43.35 312.25 45.88Q308.70 48.40 301.80 48.40L283.70 48.40M291.75 42.30L301.20 42.30Q304.35 42.30 305.98 41.27Q307.60 40.25 307.60 38Q307.60 35.80 305.98 34.72Q304.35 33.65 301.20 33.65L291.15 33.65L291.15 27.75L299.80 27.75Q302.75 27.75 304.32 26.72Q305.90 25.70 305.90 23.60Q305.90 21.55 304.32 20.52Q302.75 19.50 299.80 19.50L291.75 19.50L291.75 42.30ZM334.20 48.80Q329.90 48.80 326.57 47Q323.25 45.20 321.32 42.07Q319.40 38.95 319.40 34.95Q319.40 30.90 321.32 27.77Q323.25 24.65 326.57 22.87Q329.90 21.10 334.20 21.10Q338.45 21.10 341.80 22.87Q345.15 24.65 347.05 27.75Q348.95 30.85 348.95 34.95Q348.95 38.95 347.05 42.07Q345.15 45.20 341.80 47Q338.45 48.80 334.20 48.80M334.20 42.40Q336.15 42.40 337.70 41.50Q339.25 40.60 340.15 38.92Q341.05 37.25 341.05 34.95Q341.05 32.60 340.15 30.95Q339.25 29.30 337.70 28.40Q336.15 27.50 334.20 27.50Q332.25 27.50 330.70 28.40Q329.15 29.30 328.23 30.95Q327.30 32.60 327.30 34.95Q327.30 37.25 328.23 38.92Q329.15 40.60 330.70 41.50Q332.25 42.40 334.20 42.40ZM365.15 48.80Q360.40 48.80 357.75 46.38Q355.10 43.95 355.10 39.15L355.10 15.55L362.90 15.55L362.90 39.05Q362.90 40.75 363.80 41.67Q364.70 42.60 366.25 42.60Q368.10 42.60 369.40 41.60L371.50 47.10Q370.30 47.95 368.63 48.38Q366.95 48.80 365.15 48.80M350.95 28.10L350.95 22.10L369.60 22.10L369.60 28.10L350.95 28.10Z"/></g></g></svg>